<svg width="26" height="26" viewBox="0 0 26 26" fill="none" xmlns="http://www.w3.org/2000/svg">
<path d="M12.0984 4.80369H6.4119C4.52756 4.80369 3 6.3312 3 8.21548V19.5882C3 21.4725 4.52756 23 6.4119 23H17.7849C19.6692 23 21.1968 21.4725 21.1968 19.5882L21.1968 13.9018M8.68649 17.3136L12.8244 16.4799C13.044 16.4356 13.2457 16.3274 13.4041 16.1689L22.6671 6.90116C23.1112 6.45682 23.1109 5.73657 22.6664 5.2926L20.7042 3.33264C20.2599 2.88886 19.54 2.88916 19.0961 3.33332L9.8321 12.6021C9.674 12.7602 9.56605 12.9615 9.52175 13.1807L8.68649 17.3136Z" stroke="#171918" stroke-width="2" stroke-linecap="round" stroke-linejoin="round"/>
</svg>
