<svg width="26" height="26" viewBox="0 0 26 26" fill="none" xmlns="http://www.w3.org/2000/svg">
<path d="M11.25 6.24999C11.25 7.21649 12.0335 7.99999 13 7.99999C13.9665 7.99999 14.75 7.21649 14.75 6.24999C14.75 5.2835 13.9665 4.5 13 4.5C12.0335 4.5 11.25 5.2835 11.25 6.24999Z" fill="#171918"/>
<path d="M13 14.75C12.0335 14.75 11.25 13.9665 11.25 13C11.25 12.0335 12.0335 11.25 13 11.25C13.9665 11.25 14.75 12.0335 14.75 13C14.75 13.9665 13.9665 14.75 13 14.75Z" fill="#171918"/>
<path d="M13 21.4999C12.0335 21.4999 11.25 20.7164 11.25 19.75C11.25 18.7835 12.0335 18 13 18C13.9665 18 14.75 18.7835 14.75 19.75C14.75 20.7164 13.9665 21.4999 13 21.4999Z" fill="#171918"/>
</svg>
