<svg width="24" height="25" viewBox="0 0 24 25" fill="none" xmlns="http://www.w3.org/2000/svg">
<path d="M4.8637 5.36358C5.21517 5.01211 5.78502 5.01211 6.13649 5.36358L12.0001 11.2272L17.8637 5.36358C18.2151 5.01211 18.785 5.01211 19.1364 5.36358C19.4879 5.71505 19.4879 6.2849 19.1365 6.63637L13.2729 12.5L19.1365 18.3636C19.4879 18.7151 19.4879 19.2849 19.1364 19.6364C18.785 19.9879 18.2151 19.9879 17.8637 19.6364L12.0001 13.7728L6.13649 19.6364C5.78502 19.9879 5.21517 19.9879 4.8637 19.6364C4.51223 19.2849 4.51223 18.7151 4.8637 18.3636L10.7273 12.5L4.8637 6.63637C4.51223 6.2849 4.51223 5.71505 4.8637 5.36358Z" fill="#B4B4B4"/>
</svg>
