<svg width="26" height="26" viewBox="0 0 26 26" fill="none" xmlns="http://www.w3.org/2000/svg">
<path d="M6.24999 14.75C7.21649 14.75 7.99999 13.9665 7.99999 13C7.99999 12.0335 7.21649 11.25 6.24999 11.25C5.2835 11.25 4.5 12.0335 4.5 13C4.5 13.9665 5.2835 14.75 6.24999 14.75Z" fill="#171918"/>
<path d="M14.75 13C14.75 13.9665 13.9665 14.75 13 14.75C12.0335 14.75 11.25 13.9665 11.25 13C11.25 12.0335 12.0335 11.25 13 11.25C13.9665 11.25 14.75 12.0335 14.75 13Z" fill="#171918"/>
<path d="M21.4999 13C21.4999 13.9665 20.7164 14.75 19.75 14.75C18.7835 14.75 18 13.9665 18 13C18 12.0335 18.7835 11.25 19.75 11.25C20.7164 11.25 21.4999 12.0335 21.4999 13Z" fill="#171918"/>
</svg>
